<?xml version="1.0" encoding="iso-8859-1"?>
<!DOCTYPE svg PUBLIC "-//W3C//DTD SVG 1.0//EN" "http://www.w3.org/TR/SVG/DTD/svg10.dtd">
<svg xmlns="http://www.w3.org/2000/svg" xmlns:xlink="http://www.w3.org/1999/xlink"  width="680px" height="440px">
<rect x="0" y="0" width="680" height="440" style="fill:white;stroke:lightgray;stroke-width:1;" />

<rect id="item0" x="0" y="0" width="40" height="40" style="stroke:lightgray;stroke-width:2;fill:white" />
<rect id="item1" x="40" y="0" width="40" height="40" style="stroke:lightgray;stroke-width:2;fill:white" />
<rect id="item2" x="80" y="0" width="40" height="40" style="stroke:lightgray;stroke-width:2;fill:white" />
<rect id="item3" x="120" y="0" width="40" height="40" style="stroke:lightgray;stroke-width:2;fill:white" />
<rect id="item4" x="160" y="0" width="40" height="40" style="stroke:lightgray;stroke-width:2;fill:white" />
<rect id="item5" x="200" y="0" width="40" height="40" style="stroke:lightgray;stroke-width:2;fill:white" />
<rect id="item6" x="240" y="0" width="40" height="40" style="stroke:lightgray;stroke-width:2;fill:white" />
<rect id="item7" x="280" y="0" width="40" height="40" style="stroke:lightgray;stroke-width:2;fill:white" />
<rect id="item8" x="320" y="0" width="40" height="40" style="stroke:lightgray;stroke-width:2;fill:white" />
<rect id="item9" x="360" y="0" width="40" height="40" style="stroke:lightgray;stroke-width:2;fill:white" />
<rect id="item10" x="400" y="0" width="40" height="40" style="stroke:lightgray;stroke-width:2;fill:white" />
<rect id="item11" x="440" y="0" width="40" height="40" style="stroke:lightgray;stroke-width:2;fill:white" />
<rect id="item12" x="480" y="0" width="40" height="40" style="stroke:lightgray;stroke-width:2;fill:white" />
<rect id="item13" x="520" y="0" width="40" height="40" style="stroke:lightgray;stroke-width:2;fill:white" />
<rect id="item14" x="560" y="0" width="40" height="40" style="stroke:lightgray;stroke-width:2;fill:white" />
<rect id="item15" x="600" y="0" width="40" height="40" style="stroke:lightgray;stroke-width:2;fill:white" />
<rect id="item16" x="640" y="0" width="40" height="40" style="stroke:lightgray;stroke-width:2;fill:white" />
<rect id="item17" x="0" y="40" width="40" height="40" style="stroke:lightgray;stroke-width:2;fill:white" />
<rect id="item18" x="40" y="40" width="40" height="40" style="stroke:lightgray;stroke-width:2;fill:white" />
<rect id="item19" x="80" y="40" width="40" height="40" style="stroke:lightgray;stroke-width:2;fill:white" />
<rect id="item20" x="120" y="40" width="40" height="40" style="stroke:lightgray;stroke-width:2;fill:blue" />
<rect id="item21" x="160" y="40" width="40" height="40" style="stroke:lightgray;stroke-width:2;fill:blue" />
<rect id="item22" x="200" y="40" width="40" height="40" style="stroke:lightgray;stroke-width:2;fill:blue" />
<rect id="item23" x="240" y="40" width="40" height="40" style="stroke:lightgray;stroke-width:2;fill:blue" />
<rect id="item24" x="280" y="40" width="40" height="40" style="stroke:lightgray;stroke-width:2;fill:blue" />
<rect id="item25" x="320" y="40" width="40" height="40" style="stroke:lightgray;stroke-width:2;fill:blue" />
<rect id="item26" x="360" y="40" width="40" height="40" style="stroke:lightgray;stroke-width:2;fill:blue" />
<rect id="item27" x="400" y="40" width="40" height="40" style="stroke:lightgray;stroke-width:2;fill:blue" />
<rect id="item28" x="440" y="40" width="40" height="40" style="stroke:lightgray;stroke-width:2;fill:blue" />
<rect id="item29" x="480" y="40" width="40" height="40" style="stroke:lightgray;stroke-width:2;fill:white" />
<rect id="item30" x="520" y="40" width="40" height="40" style="stroke:lightgray;stroke-width:2;fill:white" />
<rect id="item31" x="560" y="40" width="40" height="40" style="stroke:lightgray;stroke-width:2;fill:white" />
<rect id="item32" x="600" y="40" width="40" height="40" style="stroke:lightgray;stroke-width:2;fill:white" />
<rect id="item33" x="640" y="40" width="40" height="40" style="stroke:lightgray;stroke-width:2;fill:white" />
<rect id="item34" x="0" y="80" width="40" height="40" style="stroke:lightgray;stroke-width:2;fill:white" />
<rect id="item35" x="40" y="80" width="40" height="40" style="stroke:lightgray;stroke-width:2;fill:white" />
<rect id="item36" x="80" y="80" width="40" height="40" style="stroke:lightgray;stroke-width:2;fill:white" />
<rect id="item37" x="120" y="80" width="40" height="40" style="stroke:lightgray;stroke-width:2;fill:blue" />
<rect id="item38" x="160" y="80" width="40" height="40" style="stroke:lightgray;stroke-width:2;fill:white" />
<rect id="item39" x="200" y="80" width="40" height="40" style="stroke:lightgray;stroke-width:2;fill:white" />
<rect id="item40" x="240" y="80" width="40" height="40" style="stroke:lightgray;stroke-width:2;fill:white" />
<rect id="item41" x="280" y="80" width="40" height="40" style="stroke:lightgray;stroke-width:2;fill:white" />
<rect id="item42" x="320" y="80" width="40" height="40" style="stroke:lightgray;stroke-width:2;fill:white" />
<rect id="item43" x="360" y="80" width="40" height="40" style="stroke:lightgray;stroke-width:2;fill:white" />
<rect id="item44" x="400" y="80" width="40" height="40" style="stroke:lightgray;stroke-width:2;fill:white" />
<rect id="item45" x="440" y="80" width="40" height="40" style="stroke:lightgray;stroke-width:2;fill:blue" />
<rect id="item46" x="480" y="80" width="40" height="40" style="stroke:lightgray;stroke-width:2;fill:white" />
<rect id="item47" x="520" y="80" width="40" height="40" style="stroke:lightgray;stroke-width:2;fill:white" />
<rect id="item48" x="560" y="80" width="40" height="40" style="stroke:lightgray;stroke-width:2;fill:white" />
<rect id="item49" x="600" y="80" width="40" height="40" style="stroke:lightgray;stroke-width:2;fill:white" />
<rect id="item50" x="640" y="80" width="40" height="40" style="stroke:lightgray;stroke-width:2;fill:white" />
<rect id="item51" x="0" y="120" width="40" height="40" style="stroke:lightgray;stroke-width:2;fill:white" />
<rect id="item52" x="40" y="120" width="40" height="40" style="stroke:lightgray;stroke-width:2;fill:white" />
<rect id="item53" x="80" y="120" width="40" height="40" style="stroke:lightgray;stroke-width:2;fill:white" />
<rect id="item54" x="120" y="120" width="40" height="40" style="stroke:lightgray;stroke-width:2;fill:blue" />
<rect id="item55" x="160" y="120" width="40" height="40" style="stroke:lightgray;stroke-width:2;fill:white" />
<rect id="item56" x="200" y="120" width="40" height="40" style="stroke:lightgray;stroke-width:2;fill:white" />
<rect id="item57" x="240" y="120" width="40" height="40" style="stroke:lightgray;stroke-width:2;fill:white" />
<rect id="item58" x="280" y="120" width="40" height="40" style="stroke:lightgray;stroke-width:2;fill:white" />
<rect id="item59" x="320" y="120" width="40" height="40" style="stroke:lightgray;stroke-width:2;fill:white" />
<rect id="item60" x="360" y="120" width="40" height="40" style="stroke:lightgray;stroke-width:2;fill:black" />
<rect id="item61" x="400" y="120" width="40" height="40" style="stroke:lightgray;stroke-width:2;fill:black" />
<rect id="item62" x="440" y="120" width="40" height="40" style="stroke:lightgray;stroke-width:2;fill:blue" />
<rect id="item63" x="480" y="120" width="40" height="40" style="stroke:lightgray;stroke-width:2;fill:black" />
<rect id="item64" x="520" y="120" width="40" height="40" style="stroke:lightgray;stroke-width:2;fill:black" />
<rect id="item65" x="560" y="120" width="40" height="40" style="stroke:lightgray;stroke-width:2;fill:black" />
<rect id="item66" x="600" y="120" width="40" height="40" style="stroke:lightgray;stroke-width:2;fill:black" />
<rect id="item67" x="640" y="120" width="40" height="40" style="stroke:lightgray;stroke-width:2;fill:white" />
<rect id="item68" x="0" y="160" width="40" height="40" style="stroke:lightgray;stroke-width:2;fill:white" />
<rect id="item69" x="40" y="160" width="40" height="40" style="stroke:lightgray;stroke-width:2;fill:white" />
<rect id="item70" x="80" y="160" width="40" height="40" style="stroke:lightgray;stroke-width:2;fill:white" />
<rect id="item71" x="120" y="160" width="40" height="40" style="stroke:lightgray;stroke-width:2;fill:blue" />
<rect id="item72" x="160" y="160" width="40" height="40" style="stroke:lightgray;stroke-width:2;fill:white" />
<rect id="item73" x="200" y="160" width="40" height="40" style="stroke:lightgray;stroke-width:2;fill:white" />
<rect id="item74" x="240" y="160" width="40" height="40" style="stroke:lightgray;stroke-width:2;fill:white" />
<rect id="item75" x="280" y="160" width="40" height="40" style="stroke:lightgray;stroke-width:2;fill:white" />
<rect id="item76" x="320" y="160" width="40" height="40" style="stroke:lightgray;stroke-width:2;fill:white" />
<rect id="item77" x="360" y="160" width="40" height="40" style="stroke:lightgray;stroke-width:2;fill:black" />
<rect id="item78" x="400" y="160" width="40" height="40" style="stroke:lightgray;stroke-width:2;fill:white" />
<rect id="item79" x="440" y="160" width="40" height="40" style="stroke:lightgray;stroke-width:2;fill:blue" />
<rect id="item80" x="480" y="160" width="40" height="40" style="stroke:lightgray;stroke-width:2;fill:white" />
<rect id="item81" x="520" y="160" width="40" height="40" style="stroke:lightgray;stroke-width:2;fill:white" />
<rect id="item82" x="560" y="160" width="40" height="40" style="stroke:lightgray;stroke-width:2;fill:white" />
<rect id="item83" x="600" y="160" width="40" height="40" style="stroke:lightgray;stroke-width:2;fill:black" />
<rect id="item84" x="640" y="160" width="40" height="40" style="stroke:lightgray;stroke-width:2;fill:white" />
<rect id="item85" x="0" y="200" width="40" height="40" style="stroke:lightgray;stroke-width:2;fill:white" />
<rect id="item86" x="40" y="200" width="40" height="40" style="stroke:lightgray;stroke-width:2;fill:black" />
<rect id="item87" x="80" y="200" width="40" height="40" style="stroke:lightgray;stroke-width:2;fill:black" />
<rect id="item88" x="120" y="200" width="40" height="40" style="stroke:lightgray;stroke-width:2;fill:black" />
<rect id="item89" x="160" y="200" width="40" height="40" style="stroke:lightgray;stroke-width:2;fill:black" />
<rect id="item90" x="200" y="200" width="40" height="40" style="stroke:lightgray;stroke-width:2;fill:black" />
<rect id="item91" x="240" y="200" width="40" height="40" style="stroke:lightgray;stroke-width:2;fill:black" />
<rect id="item92" x="280" y="200" width="40" height="40" style="stroke:lightgray;stroke-width:2;fill:black" />
<rect id="item93" x="320" y="200" width="40" height="40" style="stroke:lightgray;stroke-width:2;fill:white" />
<rect id="item94" x="360" y="200" width="40" height="40" style="stroke:lightgray;stroke-width:2;fill:black" />
<rect id="item95" x="400" y="200" width="40" height="40" style="stroke:lightgray;stroke-width:2;fill:black" />
<rect id="item96" x="440" y="200" width="40" height="40" style="stroke:lightgray;stroke-width:2;fill:blue" />
<rect id="item97" x="480" y="200" width="40" height="40" style="stroke:lightgray;stroke-width:2;fill:black" />
<rect id="item98" x="520" y="200" width="40" height="40" style="stroke:lightgray;stroke-width:2;fill:black" />
<rect id="item99" x="560" y="200" width="40" height="40" style="stroke:lightgray;stroke-width:2;fill:black" />
<rect id="item100" x="600" y="200" width="40" height="40" style="stroke:lightgray;stroke-width:2;fill:black" />
<rect id="item101" x="640" y="200" width="40" height="40" style="stroke:lightgray;stroke-width:2;fill:white" />
<rect id="item102" x="0" y="240" width="40" height="40" style="stroke:lightgray;stroke-width:2;fill:white" />
<rect id="item103" x="40" y="240" width="40" height="40" style="stroke:lightgray;stroke-width:2;fill:black" />
<rect id="item104" x="80" y="240" width="40" height="40" style="stroke:lightgray;stroke-width:2;fill:white" />
<rect id="item105" x="120" y="240" width="40" height="40" style="stroke:lightgray;stroke-width:2;fill:blue" />
<rect id="item106" x="160" y="240" width="40" height="40" style="stroke:lightgray;stroke-width:2;fill:white" />
<rect id="item107" x="200" y="240" width="40" height="40" style="stroke:lightgray;stroke-width:2;fill:white" />
<rect id="item108" x="240" y="240" width="40" height="40" style="stroke:lightgray;stroke-width:2;fill:white" />
<rect id="item109" x="280" y="240" width="40" height="40" style="stroke:lightgray;stroke-width:2;fill:black" />
<rect id="item110" x="320" y="240" width="40" height="40" style="stroke:lightgray;stroke-width:2;fill:white" />
<rect id="item111" x="360" y="240" width="40" height="40" style="stroke:lightgray;stroke-width:2;fill:white" />
<rect id="item112" x="400" y="240" width="40" height="40" style="stroke:lightgray;stroke-width:2;fill:white" />
<rect id="item113" x="440" y="240" width="40" height="40" style="stroke:lightgray;stroke-width:2;fill:blue" />
<rect id="item114" x="480" y="240" width="40" height="40" style="stroke:lightgray;stroke-width:2;fill:white" />
<rect id="item115" x="520" y="240" width="40" height="40" style="stroke:lightgray;stroke-width:2;fill:white" />
<rect id="item116" x="560" y="240" width="40" height="40" style="stroke:lightgray;stroke-width:2;fill:white" />
<rect id="item117" x="600" y="240" width="40" height="40" style="stroke:lightgray;stroke-width:2;fill:white" />
<rect id="item118" x="640" y="240" width="40" height="40" style="stroke:lightgray;stroke-width:2;fill:white" />
<rect id="item119" x="0" y="280" width="40" height="40" style="stroke:lightgray;stroke-width:2;fill:white" />
<rect id="item120" x="40" y="280" width="40" height="40" style="stroke:lightgray;stroke-width:2;fill:black" />
<rect id="item121" x="80" y="280" width="40" height="40" style="stroke:lightgray;stroke-width:2;fill:white" />
<rect id="item122" x="120" y="280" width="40" height="40" style="stroke:lightgray;stroke-width:2;fill:blue" />
<rect id="item123" x="160" y="280" width="40" height="40" style="stroke:lightgray;stroke-width:2;fill:white" />
<rect id="item124" x="200" y="280" width="40" height="40" style="stroke:lightgray;stroke-width:2;fill:white" />
<rect id="item125" x="240" y="280" width="40" height="40" style="stroke:lightgray;stroke-width:2;fill:white" />
<rect id="item126" x="280" y="280" width="40" height="40" style="stroke:lightgray;stroke-width:2;fill:black" />
<rect id="item127" x="320" y="280" width="40" height="40" style="stroke:lightgray;stroke-width:2;fill:white" />
<rect id="item128" x="360" y="280" width="40" height="40" style="stroke:lightgray;stroke-width:2;fill:white" />
<rect id="item129" x="400" y="280" width="40" height="40" style="stroke:lightgray;stroke-width:2;fill:white" />
<rect id="item130" x="440" y="280" width="40" height="40" style="stroke:lightgray;stroke-width:2;fill:blue" />
<rect id="item131" x="480" y="280" width="40" height="40" style="stroke:lightgray;stroke-width:2;fill:white" />
<rect id="item132" x="520" y="280" width="40" height="40" style="stroke:lightgray;stroke-width:2;fill:blue" />
<rect id="item133" x="560" y="280" width="40" height="40" style="stroke:lightgray;stroke-width:2;fill:blue" />
<rect id="item134" x="600" y="280" width="40" height="40" style="stroke:lightgray;stroke-width:2;fill:blue" />
<rect id="item135" x="640" y="280" width="40" height="40" style="stroke:lightgray;stroke-width:2;fill:blue" />
<rect id="item136" x="0" y="320" width="40" height="40" style="stroke:lightgray;stroke-width:2;fill:white" />
<rect id="item137" x="40" y="320" width="40" height="40" style="stroke:lightgray;stroke-width:2;fill:black" />
<rect id="item138" x="80" y="320" width="40" height="40" style="stroke:lightgray;stroke-width:2;fill:white" />
<rect id="item139" x="120" y="320" width="40" height="40" style="stroke:lightgray;stroke-width:2;fill:blue" />
<rect id="item140" x="160" y="320" width="40" height="40" style="stroke:lightgray;stroke-width:2;fill:blue" />
<rect id="item141" x="200" y="320" width="40" height="40" style="stroke:lightgray;stroke-width:2;fill:blue" />
<rect id="item142" x="240" y="320" width="40" height="40" style="stroke:lightgray;stroke-width:2;fill:blue" />
<rect id="item143" x="280" y="320" width="40" height="40" style="stroke:lightgray;stroke-width:2;fill:black" />
<rect id="item144" x="320" y="320" width="40" height="40" style="stroke:lightgray;stroke-width:2;fill:blue" />
<rect id="item145" x="360" y="320" width="40" height="40" style="stroke:lightgray;stroke-width:2;fill:blue" />
<rect id="item146" x="400" y="320" width="40" height="40" style="stroke:lightgray;stroke-width:2;fill:blue" />
<rect id="item147" x="440" y="320" width="40" height="40" style="stroke:lightgray;stroke-width:2;fill:blue" />
<rect id="item148" x="480" y="320" width="40" height="40" style="stroke:lightgray;stroke-width:2;fill:white" />
<rect id="item149" x="520" y="320" width="40" height="40" style="stroke:lightgray;stroke-width:2;fill:blue" />
<rect id="item150" x="560" y="320" width="40" height="40" style="stroke:lightgray;stroke-width:2;fill:white" />
<rect id="item151" x="600" y="320" width="40" height="40" style="stroke:lightgray;stroke-width:2;fill:white" />
<rect id="item152" x="640" y="320" width="40" height="40" style="stroke:lightgray;stroke-width:2;fill:blue" />
<rect id="item153" x="0" y="360" width="40" height="40" style="stroke:lightgray;stroke-width:2;fill:white" />
<rect id="item154" x="40" y="360" width="40" height="40" style="stroke:lightgray;stroke-width:2;fill:black" />
<rect id="item155" x="80" y="360" width="40" height="40" style="stroke:lightgray;stroke-width:2;fill:white" />
<rect id="item156" x="120" y="360" width="40" height="40" style="stroke:lightgray;stroke-width:2;fill:white" />
<rect id="item157" x="160" y="360" width="40" height="40" style="stroke:lightgray;stroke-width:2;fill:white" />
<rect id="item158" x="200" y="360" width="40" height="40" style="stroke:lightgray;stroke-width:2;fill:white" />
<rect id="item159" x="240" y="360" width="40" height="40" style="stroke:lightgray;stroke-width:2;fill:white" />
<rect id="item160" x="280" y="360" width="40" height="40" style="stroke:lightgray;stroke-width:2;fill:black" />
<rect id="item161" x="320" y="360" width="40" height="40" style="stroke:lightgray;stroke-width:2;fill:white" />
<rect id="item162" x="360" y="360" width="40" height="40" style="stroke:lightgray;stroke-width:2;fill:white" />
<rect id="item163" x="400" y="360" width="40" height="40" style="stroke:lightgray;stroke-width:2;fill:white" />
<rect id="item164" x="440" y="360" width="40" height="40" style="stroke:lightgray;stroke-width:2;fill:white" />
<rect id="item165" x="480" y="360" width="40" height="40" style="stroke:lightgray;stroke-width:2;fill:white" />
<rect id="item166" x="520" y="360" width="40" height="40" style="stroke:lightgray;stroke-width:2;fill:blue" />
<rect id="item167" x="560" y="360" width="40" height="40" style="stroke:lightgray;stroke-width:2;fill:blue" />
<rect id="item168" x="600" y="360" width="40" height="40" style="stroke:lightgray;stroke-width:2;fill:blue" />
<rect id="item169" x="640" y="360" width="40" height="40" style="stroke:lightgray;stroke-width:2;fill:blue" />
<rect id="item170" x="0" y="400" width="40" height="40" style="stroke:lightgray;stroke-width:2;fill:white" />
<rect id="item171" x="40" y="400" width="40" height="40" style="stroke:lightgray;stroke-width:2;fill:black" />
<rect id="item172" x="80" y="400" width="40" height="40" style="stroke:lightgray;stroke-width:2;fill:black" />
<rect id="item173" x="120" y="400" width="40" height="40" style="stroke:lightgray;stroke-width:2;fill:black" />
<rect id="item174" x="160" y="400" width="40" height="40" style="stroke:lightgray;stroke-width:2;fill:black" />
<rect id="item175" x="200" y="400" width="40" height="40" style="stroke:lightgray;stroke-width:2;fill:black" />
<rect id="item176" x="240" y="400" width="40" height="40" style="stroke:lightgray;stroke-width:2;fill:black" />
<rect id="item177" x="280" y="400" width="40" height="40" style="stroke:lightgray;stroke-width:2;fill:black" />
<rect id="item178" x="320" y="400" width="40" height="40" style="stroke:lightgray;stroke-width:2;fill:white" />
<rect id="item179" x="360" y="400" width="40" height="40" style="stroke:lightgray;stroke-width:2;fill:white" />
<rect id="item180" x="400" y="400" width="40" height="40" style="stroke:lightgray;stroke-width:2;fill:white" />
<rect id="item181" x="440" y="400" width="40" height="40" style="stroke:lightgray;stroke-width:2;fill:white" />
<rect id="item182" x="480" y="400" width="40" height="40" style="stroke:lightgray;stroke-width:2;fill:white" />
<rect id="item183" x="520" y="400" width="40" height="40" style="stroke:lightgray;stroke-width:2;fill:white" />
<rect id="item184" x="560" y="400" width="40" height="40" style="stroke:lightgray;stroke-width:2;fill:white" />
<rect id="item185" x="600" y="400" width="40" height="40" style="stroke:lightgray;stroke-width:2;fill:white" />
<rect id="item186" x="640" y="400" width="40" height="40" style="stroke:lightgray;stroke-width:2;fill:white" />
<rect id="item187" x="40" y="80" width="40" height="40" style="stroke:brown;stroke-width:2;fill:red" />
<rect id="item188" x="40" y="80" width="40" height="40" style="stroke:lightgray;stroke-width:2;fill:red" />
<rect id="item189" x="80" y="80" width="40" height="40" style="stroke:brown;stroke-width:2;fill:red" />
<rect id="item190" x="0" y="80" width="40" height="40" style="stroke:brown;stroke-width:2;fill:red" />
<rect id="item191" x="40" y="120" width="40" height="40" style="stroke:brown;stroke-width:2;fill:red" />
<rect id="item192" x="40" y="40" width="40" height="40" style="stroke:brown;stroke-width:2;fill:red" />
<rect id="item193" x="40" y="40" width="40" height="40" style="stroke:lightgray;stroke-width:2;fill:red" />
<rect id="item194" x="80" y="40" width="40" height="40" style="stroke:brown;stroke-width:2;fill:red" />
<rect id="item195" x="0" y="40" width="40" height="40" style="stroke:brown;stroke-width:2;fill:red" />
<rect id="item196" x="40" y="0" width="40" height="40" style="stroke:brown;stroke-width:2;fill:red" />
<rect id="item197" x="40" y="0" width="40" height="40" style="stroke:lightgray;stroke-width:2;fill:red" />
<rect id="item198" x="80" y="0" width="40" height="40" style="stroke:brown;stroke-width:2;fill:red" />
<rect id="item199" x="0" y="0" width="40" height="40" style="stroke:brown;stroke-width:2;fill:red" />
<rect id="item200" x="0" y="0" width="40" height="40" style="stroke:lightgray;stroke-width:2;fill:red" />
<rect id="item201" x="80" y="0" width="40" height="40" style="stroke:lightgray;stroke-width:2;fill:red" />
<rect id="item202" x="120" y="0" width="40" height="40" style="stroke:brown;stroke-width:2;fill:red" />
<rect id="item203" x="120" y="0" width="40" height="40" style="stroke:lightgray;stroke-width:2;fill:red" />
<rect id="item204" x="160" y="0" width="40" height="40" style="stroke:brown;stroke-width:2;fill:red" />
<rect id="item205" x="160" y="0" width="40" height="40" style="stroke:lightgray;stroke-width:2;fill:red" />
<rect id="item206" x="200" y="0" width="40" height="40" style="stroke:brown;stroke-width:2;fill:red" />
<rect id="item207" x="200" y="0" width="40" height="40" style="stroke:lightgray;stroke-width:2;fill:red" />
<rect id="item208" x="240" y="0" width="40" height="40" style="stroke:brown;stroke-width:2;fill:red" />
<rect id="item209" x="240" y="0" width="40" height="40" style="stroke:lightgray;stroke-width:2;fill:red" />
<rect id="item210" x="280" y="0" width="40" height="40" style="stroke:brown;stroke-width:2;fill:red" />
<rect id="item211" x="280" y="0" width="40" height="40" style="stroke:lightgray;stroke-width:2;fill:red" />
<rect id="item212" x="320" y="0" width="40" height="40" style="stroke:brown;stroke-width:2;fill:red" />
<rect id="item213" x="320" y="0" width="40" height="40" style="stroke:lightgray;stroke-width:2;fill:red" />
<rect id="item214" x="360" y="0" width="40" height="40" style="stroke:brown;stroke-width:2;fill:red" />
<rect id="item215" x="360" y="0" width="40" height="40" style="stroke:lightgray;stroke-width:2;fill:red" />
<rect id="item216" x="400" y="0" width="40" height="40" style="stroke:brown;stroke-width:2;fill:red" />
<rect id="item217" x="400" y="0" width="40" height="40" style="stroke:lightgray;stroke-width:2;fill:red" />
<rect id="item218" x="440" y="0" width="40" height="40" style="stroke:brown;stroke-width:2;fill:red" />
<rect id="item219" x="440" y="0" width="40" height="40" style="stroke:lightgray;stroke-width:2;fill:red" />
<rect id="item220" x="480" y="0" width="40" height="40" style="stroke:brown;stroke-width:2;fill:red" />
<rect id="item221" x="480" y="0" width="40" height="40" style="stroke:lightgray;stroke-width:2;fill:red" />
<rect id="item222" x="520" y="0" width="40" height="40" style="stroke:brown;stroke-width:2;fill:red" />
<rect id="item223" x="480" y="40" width="40" height="40" style="stroke:brown;stroke-width:2;fill:red" />
<rect id="item224" x="480" y="40" width="40" height="40" style="stroke:lightgray;stroke-width:2;fill:red" />
<rect id="item225" x="520" y="40" width="40" height="40" style="stroke:brown;stroke-width:2;fill:red" />
<rect id="item226" x="480" y="80" width="40" height="40" style="stroke:brown;stroke-width:2;fill:red" />
<rect id="item227" x="480" y="80" width="40" height="40" style="stroke:lightgray;stroke-width:2;fill:red" />
<rect id="item228" x="520" y="80" width="40" height="40" style="stroke:brown;stroke-width:2;fill:red" />
<rect id="item229" x="520" y="80" width="40" height="40" style="stroke:lightgray;stroke-width:2;fill:red" />
<rect id="item230" x="560" y="80" width="40" height="40" style="stroke:brown;stroke-width:2;fill:red" />
<rect id="item231" x="560" y="80" width="40" height="40" style="stroke:lightgray;stroke-width:2;fill:red" />
<rect id="item232" x="600" y="80" width="40" height="40" style="stroke:brown;stroke-width:2;fill:red" />
<rect id="item233" x="560" y="40" width="40" height="40" style="stroke:brown;stroke-width:2;fill:red" />
<rect id="item234" x="560" y="40" width="40" height="40" style="stroke:lightgray;stroke-width:2;fill:red" />
<rect id="item235" x="600" y="40" width="40" height="40" style="stroke:brown;stroke-width:2;fill:red" />
<rect id="item236" x="560" y="0" width="40" height="40" style="stroke:brown;stroke-width:2;fill:red" />
<rect id="item237" x="560" y="0" width="40" height="40" style="stroke:lightgray;stroke-width:2;fill:red" />
<rect id="item238" x="600" y="0" width="40" height="40" style="stroke:brown;stroke-width:2;fill:red" />
<rect id="item239" x="600" y="0" width="40" height="40" style="stroke:lightgray;stroke-width:2;fill:red" />
<rect id="item240" x="640" y="0" width="40" height="40" style="stroke:brown;stroke-width:2;fill:red" />
<rect id="item241" x="640" y="0" width="40" height="40" style="stroke:lightgray;stroke-width:2;fill:red" />
<rect id="item242" x="640" y="40" width="40" height="40" style="stroke:brown;stroke-width:2;fill:red" />
<rect id="item243" x="640" y="40" width="40" height="40" style="stroke:lightgray;stroke-width:2;fill:red" />
<rect id="item244" x="640" y="80" width="40" height="40" style="stroke:brown;stroke-width:2;fill:red" />
<rect id="item245" x="640" y="80" width="40" height="40" style="stroke:lightgray;stroke-width:2;fill:red" />
<rect id="item246" x="640" y="120" width="40" height="40" style="stroke:brown;stroke-width:2;fill:red" />
<rect id="item247" x="640" y="120" width="40" height="40" style="stroke:lightgray;stroke-width:2;fill:red" />
<rect id="item248" x="640" y="160" width="40" height="40" style="stroke:brown;stroke-width:2;fill:red" />
<rect id="item249" x="640" y="160" width="40" height="40" style="stroke:lightgray;stroke-width:2;fill:red" />
<rect id="item250" x="640" y="200" width="40" height="40" style="stroke:brown;stroke-width:2;fill:red" />
<rect id="item251" x="640" y="200" width="40" height="40" style="stroke:lightgray;stroke-width:2;fill:red" />
<rect id="item252" x="640" y="240" width="40" height="40" style="stroke:brown;stroke-width:2;fill:red" />
<rect id="item253" x="640" y="240" width="40" height="40" style="stroke:lightgray;stroke-width:2;fill:red" />
<rect id="item254" x="600" y="240" width="40" height="40" style="stroke:brown;stroke-width:2;fill:red" />
<rect id="item255" x="600" y="240" width="40" height="40" style="stroke:lightgray;stroke-width:2;fill:red" />
<rect id="item256" x="560" y="240" width="40" height="40" style="stroke:brown;stroke-width:2;fill:red" />
<rect id="item257" x="560" y="240" width="40" height="40" style="stroke:lightgray;stroke-width:2;fill:red" />
<rect id="item258" x="520" y="240" width="40" height="40" style="stroke:brown;stroke-width:2;fill:red" />
<rect id="item259" x="520" y="240" width="40" height="40" style="stroke:lightgray;stroke-width:2;fill:red" />
<rect id="item260" x="480" y="240" width="40" height="40" style="stroke:brown;stroke-width:2;fill:red" />
<rect id="item261" x="480" y="240" width="40" height="40" style="stroke:lightgray;stroke-width:2;fill:red" />
<rect id="item262" x="480" y="280" width="40" height="40" style="stroke:brown;stroke-width:2;fill:red" />
<rect id="item263" x="480" y="280" width="40" height="40" style="stroke:lightgray;stroke-width:2;fill:red" />
<rect id="item264" x="480" y="320" width="40" height="40" style="stroke:brown;stroke-width:2;fill:red" />
<rect id="item265" x="480" y="320" width="40" height="40" style="stroke:lightgray;stroke-width:2;fill:red" />
<rect id="item266" x="480" y="360" width="40" height="40" style="stroke:brown;stroke-width:2;fill:red" />
<rect id="item267" x="480" y="360" width="40" height="40" style="stroke:lightgray;stroke-width:2;fill:red" />
<rect id="item268" x="440" y="360" width="40" height="40" style="stroke:brown;stroke-width:2;fill:red" />
<rect id="item269" x="480" y="400" width="40" height="40" style="stroke:brown;stroke-width:2;fill:red" />
<rect id="item270" x="480" y="400" width="40" height="40" style="stroke:lightgray;stroke-width:2;fill:red" />
<rect id="item271" x="520" y="400" width="40" height="40" style="stroke:brown;stroke-width:2;fill:red" />
<rect id="item272" x="440" y="400" width="40" height="40" style="stroke:brown;stroke-width:2;fill:red" />
<rect id="item273" x="440" y="400" width="40" height="40" style="stroke:lightgray;stroke-width:2;fill:red" />
<rect id="item274" x="400" y="400" width="40" height="40" style="stroke:brown;stroke-width:2;fill:red" />
<rect id="item275" x="400" y="400" width="40" height="40" style="stroke:lightgray;stroke-width:2;fill:red" />
<rect id="item276" x="360" y="400" width="40" height="40" style="stroke:brown;stroke-width:2;fill:red" />
<rect id="item277" x="400" y="360" width="40" height="40" style="stroke:brown;stroke-width:2;fill:red" />
<rect id="item278" x="400" y="360" width="40" height="40" style="stroke:lightgray;stroke-width:2;fill:red" />
<rect id="item279" x="360" y="360" width="40" height="40" style="stroke:brown;stroke-width:2;fill:red" />
<rect id="item280" x="360" y="360" width="40" height="40" style="stroke:lightgray;stroke-width:2;fill:red" />
<rect id="item281" x="320" y="360" width="40" height="40" style="stroke:brown;stroke-width:2;fill:red" />
<rect id="item282" x="320" y="360" width="40" height="40" style="stroke:lightgray;stroke-width:2;fill:red" />
<rect id="item283" x="320" y="400" width="40" height="40" style="stroke:brown;stroke-width:2;fill:red" />
<rect id="item284" x="320" y="400" width="40" height="40" style="stroke:lightgray;stroke-width:2;fill:red" />
<rect id="item285" x="360" y="400" width="40" height="40" style="stroke:lightgray;stroke-width:2;fill:red" />
<rect id="item286" x="520" y="400" width="40" height="40" style="stroke:lightgray;stroke-width:2;fill:red" />
<rect id="item287" x="560" y="400" width="40" height="40" style="stroke:brown;stroke-width:2;fill:red" />
<rect id="item288" x="560" y="400" width="40" height="40" style="stroke:lightgray;stroke-width:2;fill:red" />
<rect id="item289" x="600" y="400" width="40" height="40" style="stroke:brown;stroke-width:2;fill:red" />
<rect id="item290" x="600" y="400" width="40" height="40" style="stroke:lightgray;stroke-width:2;fill:red" />
<rect id="item291" x="640" y="400" width="40" height="40" style="stroke:brown;stroke-width:2;fill:red" />
<rect id="item292" x="640" y="400" width="40" height="40" style="stroke:lightgray;stroke-width:2;fill:red" />
<rect id="item293" x="440" y="360" width="40" height="40" style="stroke:lightgray;stroke-width:2;fill:red" />
<rect id="item294" x="600" y="40" width="40" height="40" style="stroke:lightgray;stroke-width:2;fill:red" />
<rect id="item295" x="600" y="80" width="40" height="40" style="stroke:lightgray;stroke-width:2;fill:red" />
<rect id="item296" x="520" y="40" width="40" height="40" style="stroke:lightgray;stroke-width:2;fill:red" />
<rect id="item297" x="520" y="0" width="40" height="40" style="stroke:lightgray;stroke-width:2;fill:red" />
<rect id="item298" x="0" y="40" width="40" height="40" style="stroke:lightgray;stroke-width:2;fill:red" />
<rect id="item299" x="80" y="40" width="40" height="40" style="stroke:lightgray;stroke-width:2;fill:red" />
<rect id="item300" x="40" y="120" width="40" height="40" style="stroke:lightgray;stroke-width:2;fill:red" />
<rect id="item301" x="80" y="120" width="40" height="40" style="stroke:brown;stroke-width:2;fill:red" />
<rect id="item302" x="0" y="120" width="40" height="40" style="stroke:brown;stroke-width:2;fill:red" />
<rect id="item303" x="40" y="160" width="40" height="40" style="stroke:brown;stroke-width:2;fill:red" />
<rect id="item304" x="40" y="160" width="40" height="40" style="stroke:lightgray;stroke-width:2;fill:red" />
<rect id="item305" x="80" y="160" width="40" height="40" style="stroke:brown;stroke-width:2;fill:red" />
<rect id="item306" x="0" y="160" width="40" height="40" style="stroke:brown;stroke-width:2;fill:red" />
<rect id="item307" x="0" y="160" width="40" height="40" style="stroke:lightgray;stroke-width:2;fill:red" />
<rect id="item308" x="0" y="200" width="40" height="40" style="stroke:brown;stroke-width:2;fill:red" />
<rect id="item309" x="0" y="200" width="40" height="40" style="stroke:lightgray;stroke-width:2;fill:red" />
<rect id="item310" x="0" y="240" width="40" height="40" style="stroke:brown;stroke-width:2;fill:red" />
<rect id="item311" x="0" y="240" width="40" height="40" style="stroke:lightgray;stroke-width:2;fill:red" />
<rect id="item312" x="0" y="280" width="40" height="40" style="stroke:brown;stroke-width:2;fill:red" />
<rect id="item313" x="0" y="280" width="40" height="40" style="stroke:lightgray;stroke-width:2;fill:red" />
<rect id="item314" x="0" y="320" width="40" height="40" style="stroke:brown;stroke-width:2;fill:red" />
<rect id="item315" x="0" y="320" width="40" height="40" style="stroke:lightgray;stroke-width:2;fill:red" />
<rect id="item316" x="0" y="360" width="40" height="40" style="stroke:brown;stroke-width:2;fill:red" />
<rect id="item317" x="0" y="360" width="40" height="40" style="stroke:lightgray;stroke-width:2;fill:red" />
<rect id="item318" x="0" y="400" width="40" height="40" style="stroke:brown;stroke-width:2;fill:red" />
<rect id="item319" x="0" y="400" width="40" height="40" style="stroke:lightgray;stroke-width:2;fill:red" />
<rect id="item320" x="80" y="160" width="40" height="40" style="stroke:lightgray;stroke-width:2;fill:red" />
<rect id="item321" x="0" y="120" width="40" height="40" style="stroke:lightgray;stroke-width:2;fill:red" />
<rect id="item322" x="80" y="120" width="40" height="40" style="stroke:lightgray;stroke-width:2;fill:red" />
<rect id="item323" x="0" y="80" width="40" height="40" style="stroke:lightgray;stroke-width:2;fill:red" />
<rect id="item324" x="80" y="80" width="40" height="40" style="stroke:lightgray;stroke-width:2;fill:red" />
<set xlink:href="#item188" attributeName="visibility" to="hidden" begin="0s" dur="0.3s" />
<set xlink:href="#item189" attributeName="visibility" to="hidden" begin="0s" dur="0.6s" />
<set xlink:href="#item190" attributeName="visibility" to="hidden" begin="0s" dur="0.9s" />
<set xlink:href="#item191" attributeName="visibility" to="hidden" begin="0s" dur="1.2s" />
<set xlink:href="#item192" attributeName="visibility" to="hidden" begin="0s" dur="1.5s" />
<set xlink:href="#item193" attributeName="visibility" to="hidden" begin="0s" dur="1.8s" />
<set xlink:href="#item194" attributeName="visibility" to="hidden" begin="0s" dur="2.1s" />
<set xlink:href="#item195" attributeName="visibility" to="hidden" begin="0s" dur="2.4s" />
<set xlink:href="#item196" attributeName="visibility" to="hidden" begin="0s" dur="2.7s" />
<set xlink:href="#item197" attributeName="visibility" to="hidden" begin="0s" dur="3s" />
<set xlink:href="#item198" attributeName="visibility" to="hidden" begin="0s" dur="3.3s" />
<set xlink:href="#item199" attributeName="visibility" to="hidden" begin="0s" dur="3.6s" />
<set xlink:href="#item200" attributeName="visibility" to="hidden" begin="0s" dur="3.9s" />
<set xlink:href="#item201" attributeName="visibility" to="hidden" begin="0s" dur="4.2s" />
<set xlink:href="#item202" attributeName="visibility" to="hidden" begin="0s" dur="4.5s" />
<set xlink:href="#item203" attributeName="visibility" to="hidden" begin="0s" dur="4.8s" />
<set xlink:href="#item204" attributeName="visibility" to="hidden" begin="0s" dur="5.1s" />
<set xlink:href="#item205" attributeName="visibility" to="hidden" begin="0s" dur="5.4s" />
<set xlink:href="#item206" attributeName="visibility" to="hidden" begin="0s" dur="5.7s" />
<set xlink:href="#item207" attributeName="visibility" to="hidden" begin="0s" dur="6s" />
<set xlink:href="#item208" attributeName="visibility" to="hidden" begin="0s" dur="6.3s" />
<set xlink:href="#item209" attributeName="visibility" to="hidden" begin="0s" dur="6.6s" />
<set xlink:href="#item210" attributeName="visibility" to="hidden" begin="0s" dur="6.9s" />
<set xlink:href="#item211" attributeName="visibility" to="hidden" begin="0s" dur="7.2s" />
<set xlink:href="#item212" attributeName="visibility" to="hidden" begin="0s" dur="7.5s" />
<set xlink:href="#item213" attributeName="visibility" to="hidden" begin="0s" dur="7.8s" />
<set xlink:href="#item214" attributeName="visibility" to="hidden" begin="0s" dur="8.1s" />
<set xlink:href="#item215" attributeName="visibility" to="hidden" begin="0s" dur="8.4s" />
<set xlink:href="#item216" attributeName="visibility" to="hidden" begin="0s" dur="8.7s" />
<set xlink:href="#item217" attributeName="visibility" to="hidden" begin="0s" dur="9s" />
<set xlink:href="#item218" attributeName="visibility" to="hidden" begin="0s" dur="9.3s" />
<set xlink:href="#item219" attributeName="visibility" to="hidden" begin="0s" dur="9.6s" />
<set xlink:href="#item220" attributeName="visibility" to="hidden" begin="0s" dur="9.9s" />
<set xlink:href="#item221" attributeName="visibility" to="hidden" begin="0s" dur="10.2s" />
<set xlink:href="#item222" attributeName="visibility" to="hidden" begin="0s" dur="10.5s" />
<set xlink:href="#item223" attributeName="visibility" to="hidden" begin="0s" dur="10.8s" />
<set xlink:href="#item224" attributeName="visibility" to="hidden" begin="0s" dur="11.1s" />
<set xlink:href="#item225" attributeName="visibility" to="hidden" begin="0s" dur="11.4s" />
<set xlink:href="#item226" attributeName="visibility" to="hidden" begin="0s" dur="11.7s" />
<set xlink:href="#item227" attributeName="visibility" to="hidden" begin="0s" dur="12s" />
<set xlink:href="#item228" attributeName="visibility" to="hidden" begin="0s" dur="12.3s" />
<set xlink:href="#item229" attributeName="visibility" to="hidden" begin="0s" dur="12.6s" />
<set xlink:href="#item230" attributeName="visibility" to="hidden" begin="0s" dur="12.9s" />
<set xlink:href="#item231" attributeName="visibility" to="hidden" begin="0s" dur="13.2s" />
<set xlink:href="#item232" attributeName="visibility" to="hidden" begin="0s" dur="13.5s" />
<set xlink:href="#item233" attributeName="visibility" to="hidden" begin="0s" dur="13.8s" />
<set xlink:href="#item234" attributeName="visibility" to="hidden" begin="0s" dur="14.1s" />
<set xlink:href="#item235" attributeName="visibility" to="hidden" begin="0s" dur="14.4s" />
<set xlink:href="#item236" attributeName="visibility" to="hidden" begin="0s" dur="14.7s" />
<set xlink:href="#item237" attributeName="visibility" to="hidden" begin="0s" dur="15s" />
<set xlink:href="#item238" attributeName="visibility" to="hidden" begin="0s" dur="15.3s" />
<set xlink:href="#item239" attributeName="visibility" to="hidden" begin="0s" dur="15.6s" />
<set xlink:href="#item240" attributeName="visibility" to="hidden" begin="0s" dur="15.9s" />
<set xlink:href="#item241" attributeName="visibility" to="hidden" begin="0s" dur="16.2s" />
<set xlink:href="#item242" attributeName="visibility" to="hidden" begin="0s" dur="16.5s" />
<set xlink:href="#item243" attributeName="visibility" to="hidden" begin="0s" dur="16.8s" />
<set xlink:href="#item244" attributeName="visibility" to="hidden" begin="0s" dur="17.1s" />
<set xlink:href="#item245" attributeName="visibility" to="hidden" begin="0s" dur="17.4s" />
<set xlink:href="#item246" attributeName="visibility" to="hidden" begin="0s" dur="17.7s" />
<set xlink:href="#item247" attributeName="visibility" to="hidden" begin="0s" dur="18s" />
<set xlink:href="#item248" attributeName="visibility" to="hidden" begin="0s" dur="18.3s" />
<set xlink:href="#item249" attributeName="visibility" to="hidden" begin="0s" dur="18.6s" />
<set xlink:href="#item250" attributeName="visibility" to="hidden" begin="0s" dur="18.9s" />
<set xlink:href="#item251" attributeName="visibility" to="hidden" begin="0s" dur="19.2s" />
<set xlink:href="#item252" attributeName="visibility" to="hidden" begin="0s" dur="19.5s" />
<set xlink:href="#item253" attributeName="visibility" to="hidden" begin="0s" dur="19.8s" />
<set xlink:href="#item254" attributeName="visibility" to="hidden" begin="0s" dur="20.1s" />
<set xlink:href="#item255" attributeName="visibility" to="hidden" begin="0s" dur="20.4s" />
<set xlink:href="#item256" attributeName="visibility" to="hidden" begin="0s" dur="20.7s" />
<set xlink:href="#item257" attributeName="visibility" to="hidden" begin="0s" dur="21s" />
<set xlink:href="#item258" attributeName="visibility" to="hidden" begin="0s" dur="21.3s" />
<set xlink:href="#item259" attributeName="visibility" to="hidden" begin="0s" dur="21.6s" />
<set xlink:href="#item260" attributeName="visibility" to="hidden" begin="0s" dur="21.9s" />
<set xlink:href="#item261" attributeName="visibility" to="hidden" begin="0s" dur="22.2s" />
<set xlink:href="#item262" attributeName="visibility" to="hidden" begin="0s" dur="22.5s" />
<set xlink:href="#item263" attributeName="visibility" to="hidden" begin="0s" dur="22.8s" />
<set xlink:href="#item264" attributeName="visibility" to="hidden" begin="0s" dur="23.1s" />
<set xlink:href="#item265" attributeName="visibility" to="hidden" begin="0s" dur="23.4s" />
<set xlink:href="#item266" attributeName="visibility" to="hidden" begin="0s" dur="23.7s" />
<set xlink:href="#item267" attributeName="visibility" to="hidden" begin="0s" dur="24s" />
<set xlink:href="#item268" attributeName="visibility" to="hidden" begin="0s" dur="24.3s" />
<set xlink:href="#item269" attributeName="visibility" to="hidden" begin="0s" dur="24.6s" />
<set xlink:href="#item270" attributeName="visibility" to="hidden" begin="0s" dur="24.9s" />
<set xlink:href="#item271" attributeName="visibility" to="hidden" begin="0s" dur="25.2s" />
<set xlink:href="#item272" attributeName="visibility" to="hidden" begin="0s" dur="25.5s" />
<set xlink:href="#item273" attributeName="visibility" to="hidden" begin="0s" dur="25.8s" />
<set xlink:href="#item274" attributeName="visibility" to="hidden" begin="0s" dur="26.1s" />
<set xlink:href="#item275" attributeName="visibility" to="hidden" begin="0s" dur="26.4s" />
<set xlink:href="#item276" attributeName="visibility" to="hidden" begin="0s" dur="26.7s" />
<set xlink:href="#item277" attributeName="visibility" to="hidden" begin="0s" dur="27s" />
<set xlink:href="#item278" attributeName="visibility" to="hidden" begin="0s" dur="27.3s" />
<set xlink:href="#item279" attributeName="visibility" to="hidden" begin="0s" dur="27.6s" />
<set xlink:href="#item280" attributeName="visibility" to="hidden" begin="0s" dur="27.9s" />
<set xlink:href="#item281" attributeName="visibility" to="hidden" begin="0s" dur="28.2s" />
<set xlink:href="#item282" attributeName="visibility" to="hidden" begin="0s" dur="28.5s" />
<set xlink:href="#item283" attributeName="visibility" to="hidden" begin="0s" dur="28.8s" />
<set xlink:href="#item284" attributeName="visibility" to="hidden" begin="0s" dur="29.1s" />
<set xlink:href="#item285" attributeName="visibility" to="hidden" begin="0s" dur="29.4s" />
<set xlink:href="#item286" attributeName="visibility" to="hidden" begin="0s" dur="29.7s" />
<set xlink:href="#item287" attributeName="visibility" to="hidden" begin="0s" dur="30s" />
<set xlink:href="#item288" attributeName="visibility" to="hidden" begin="0s" dur="30.3s" />
<set xlink:href="#item289" attributeName="visibility" to="hidden" begin="0s" dur="30.6s" />
<set xlink:href="#item290" attributeName="visibility" to="hidden" begin="0s" dur="30.9s" />
<set xlink:href="#item291" attributeName="visibility" to="hidden" begin="0s" dur="31.2s" />
<set xlink:href="#item292" attributeName="visibility" to="hidden" begin="0s" dur="31.5s" />
<set xlink:href="#item293" attributeName="visibility" to="hidden" begin="0s" dur="31.8s" />
<set xlink:href="#item294" attributeName="visibility" to="hidden" begin="0s" dur="32.1s" />
<set xlink:href="#item295" attributeName="visibility" to="hidden" begin="0s" dur="32.4s" />
<set xlink:href="#item296" attributeName="visibility" to="hidden" begin="0s" dur="32.7s" />
<set xlink:href="#item297" attributeName="visibility" to="hidden" begin="0s" dur="33s" />
<set xlink:href="#item298" attributeName="visibility" to="hidden" begin="0s" dur="33.3s" />
<set xlink:href="#item299" attributeName="visibility" to="hidden" begin="0s" dur="33.6s" />
<set xlink:href="#item300" attributeName="visibility" to="hidden" begin="0s" dur="33.9s" />
<set xlink:href="#item301" attributeName="visibility" to="hidden" begin="0s" dur="34.2s" />
<set xlink:href="#item302" attributeName="visibility" to="hidden" begin="0s" dur="34.5s" />
<set xlink:href="#item303" attributeName="visibility" to="hidden" begin="0s" dur="34.8s" />
<set xlink:href="#item304" attributeName="visibility" to="hidden" begin="0s" dur="35.1s" />
<set xlink:href="#item305" attributeName="visibility" to="hidden" begin="0s" dur="35.4s" />
<set xlink:href="#item306" attributeName="visibility" to="hidden" begin="0s" dur="35.7s" />
<set xlink:href="#item307" attributeName="visibility" to="hidden" begin="0s" dur="36s" />
<set xlink:href="#item308" attributeName="visibility" to="hidden" begin="0s" dur="36.3s" />
<set xlink:href="#item309" attributeName="visibility" to="hidden" begin="0s" dur="36.6s" />
<set xlink:href="#item310" attributeName="visibility" to="hidden" begin="0s" dur="36.9s" />
<set xlink:href="#item311" attributeName="visibility" to="hidden" begin="0s" dur="37.2s" />
<set xlink:href="#item312" attributeName="visibility" to="hidden" begin="0s" dur="37.5s" />
<set xlink:href="#item313" attributeName="visibility" to="hidden" begin="0s" dur="37.8s" />
<set xlink:href="#item314" attributeName="visibility" to="hidden" begin="0s" dur="38.1s" />
<set xlink:href="#item315" attributeName="visibility" to="hidden" begin="0s" dur="38.4s" />
<set xlink:href="#item316" attributeName="visibility" to="hidden" begin="0s" dur="38.7s" />
<set xlink:href="#item317" attributeName="visibility" to="hidden" begin="0s" dur="39s" />
<set xlink:href="#item318" attributeName="visibility" to="hidden" begin="0s" dur="39.3s" />
<set xlink:href="#item319" attributeName="visibility" to="hidden" begin="0s" dur="39.6s" />
<set xlink:href="#item320" attributeName="visibility" to="hidden" begin="0s" dur="39.9s" />
<set xlink:href="#item321" attributeName="visibility" to="hidden" begin="0s" dur="40.2s" />
<set xlink:href="#item322" attributeName="visibility" to="hidden" begin="0s" dur="40.5s" />
<set xlink:href="#item323" attributeName="visibility" to="hidden" begin="0s" dur="40.8s" />
<set xlink:href="#item324" attributeName="visibility" to="hidden" begin="0s" dur="41.1s" />
</svg>
