<?xml version="1.0" encoding="iso-8859-1"?>
<!DOCTYPE svg PUBLIC "-//W3C//DTD SVG 1.0//EN" "http://www.w3.org/TR/SVG/DTD/svg10.dtd">
<svg xmlns="http://www.w3.org/2000/svg" xmlns:xlink="http://www.w3.org/1999/xlink"  width="680px" height="440px">
<rect x="0" y="0" width="680" height="440" style="fill:white;stroke:lightgray;stroke-width:1;" />

<rect id="item0" x="0" y="0" width="40" height="40" style="stroke:lightgray;stroke-width:2;fill:white" />
<rect id="item1" x="40" y="0" width="40" height="40" style="stroke:lightgray;stroke-width:2;fill:white" />
<rect id="item2" x="80" y="0" width="40" height="40" style="stroke:lightgray;stroke-width:2;fill:white" />
<rect id="item3" x="120" y="0" width="40" height="40" style="stroke:lightgray;stroke-width:2;fill:white" />
<rect id="item4" x="160" y="0" width="40" height="40" style="stroke:lightgray;stroke-width:2;fill:white" />
<rect id="item5" x="200" y="0" width="40" height="40" style="stroke:lightgray;stroke-width:2;fill:white" />
<rect id="item6" x="240" y="0" width="40" height="40" style="stroke:lightgray;stroke-width:2;fill:white" />
<rect id="item7" x="280" y="0" width="40" height="40" style="stroke:lightgray;stroke-width:2;fill:white" />
<rect id="item8" x="320" y="0" width="40" height="40" style="stroke:lightgray;stroke-width:2;fill:white" />
<rect id="item9" x="360" y="0" width="40" height="40" style="stroke:lightgray;stroke-width:2;fill:white" />
<rect id="item10" x="400" y="0" width="40" height="40" style="stroke:lightgray;stroke-width:2;fill:white" />
<rect id="item11" x="440" y="0" width="40" height="40" style="stroke:lightgray;stroke-width:2;fill:white" />
<rect id="item12" x="480" y="0" width="40" height="40" style="stroke:lightgray;stroke-width:2;fill:white" />
<rect id="item13" x="520" y="0" width="40" height="40" style="stroke:lightgray;stroke-width:2;fill:white" />
<rect id="item14" x="560" y="0" width="40" height="40" style="stroke:lightgray;stroke-width:2;fill:white" />
<rect id="item15" x="600" y="0" width="40" height="40" style="stroke:lightgray;stroke-width:2;fill:white" />
<rect id="item16" x="640" y="0" width="40" height="40" style="stroke:lightgray;stroke-width:2;fill:white" />
<rect id="item17" x="0" y="40" width="40" height="40" style="stroke:lightgray;stroke-width:2;fill:white" />
<rect id="item18" x="40" y="40" width="40" height="40" style="stroke:lightgray;stroke-width:2;fill:white" />
<rect id="item19" x="80" y="40" width="40" height="40" style="stroke:lightgray;stroke-width:2;fill:white" />
<rect id="item20" x="120" y="40" width="40" height="40" style="stroke:lightgray;stroke-width:2;fill:blue" />
<rect id="item21" x="160" y="40" width="40" height="40" style="stroke:lightgray;stroke-width:2;fill:blue" />
<rect id="item22" x="200" y="40" width="40" height="40" style="stroke:lightgray;stroke-width:2;fill:blue" />
<rect id="item23" x="240" y="40" width="40" height="40" style="stroke:lightgray;stroke-width:2;fill:blue" />
<rect id="item24" x="280" y="40" width="40" height="40" style="stroke:lightgray;stroke-width:2;fill:blue" />
<rect id="item25" x="320" y="40" width="40" height="40" style="stroke:lightgray;stroke-width:2;fill:blue" />
<rect id="item26" x="360" y="40" width="40" height="40" style="stroke:lightgray;stroke-width:2;fill:blue" />
<rect id="item27" x="400" y="40" width="40" height="40" style="stroke:lightgray;stroke-width:2;fill:blue" />
<rect id="item28" x="440" y="40" width="40" height="40" style="stroke:lightgray;stroke-width:2;fill:blue" />
<rect id="item29" x="480" y="40" width="40" height="40" style="stroke:lightgray;stroke-width:2;fill:white" />
<rect id="item30" x="520" y="40" width="40" height="40" style="stroke:lightgray;stroke-width:2;fill:white" />
<rect id="item31" x="560" y="40" width="40" height="40" style="stroke:lightgray;stroke-width:2;fill:white" />
<rect id="item32" x="600" y="40" width="40" height="40" style="stroke:lightgray;stroke-width:2;fill:white" />
<rect id="item33" x="640" y="40" width="40" height="40" style="stroke:lightgray;stroke-width:2;fill:white" />
<rect id="item34" x="0" y="80" width="40" height="40" style="stroke:lightgray;stroke-width:2;fill:white" />
<rect id="item35" x="40" y="80" width="40" height="40" style="stroke:lightgray;stroke-width:2;fill:white" />
<rect id="item36" x="80" y="80" width="40" height="40" style="stroke:lightgray;stroke-width:2;fill:white" />
<rect id="item37" x="120" y="80" width="40" height="40" style="stroke:lightgray;stroke-width:2;fill:blue" />
<rect id="item38" x="160" y="80" width="40" height="40" style="stroke:lightgray;stroke-width:2;fill:white" />
<rect id="item39" x="200" y="80" width="40" height="40" style="stroke:lightgray;stroke-width:2;fill:white" />
<rect id="item40" x="240" y="80" width="40" height="40" style="stroke:lightgray;stroke-width:2;fill:white" />
<rect id="item41" x="280" y="80" width="40" height="40" style="stroke:lightgray;stroke-width:2;fill:white" />
<rect id="item42" x="320" y="80" width="40" height="40" style="stroke:lightgray;stroke-width:2;fill:white" />
<rect id="item43" x="360" y="80" width="40" height="40" style="stroke:lightgray;stroke-width:2;fill:white" />
<rect id="item44" x="400" y="80" width="40" height="40" style="stroke:lightgray;stroke-width:2;fill:white" />
<rect id="item45" x="440" y="80" width="40" height="40" style="stroke:lightgray;stroke-width:2;fill:blue" />
<rect id="item46" x="480" y="80" width="40" height="40" style="stroke:lightgray;stroke-width:2;fill:white" />
<rect id="item47" x="520" y="80" width="40" height="40" style="stroke:lightgray;stroke-width:2;fill:white" />
<rect id="item48" x="560" y="80" width="40" height="40" style="stroke:lightgray;stroke-width:2;fill:white" />
<rect id="item49" x="600" y="80" width="40" height="40" style="stroke:lightgray;stroke-width:2;fill:white" />
<rect id="item50" x="640" y="80" width="40" height="40" style="stroke:lightgray;stroke-width:2;fill:white" />
<rect id="item51" x="0" y="120" width="40" height="40" style="stroke:lightgray;stroke-width:2;fill:white" />
<rect id="item52" x="40" y="120" width="40" height="40" style="stroke:lightgray;stroke-width:2;fill:white" />
<rect id="item53" x="80" y="120" width="40" height="40" style="stroke:lightgray;stroke-width:2;fill:white" />
<rect id="item54" x="120" y="120" width="40" height="40" style="stroke:lightgray;stroke-width:2;fill:blue" />
<rect id="item55" x="160" y="120" width="40" height="40" style="stroke:lightgray;stroke-width:2;fill:white" />
<rect id="item56" x="200" y="120" width="40" height="40" style="stroke:lightgray;stroke-width:2;fill:white" />
<rect id="item57" x="240" y="120" width="40" height="40" style="stroke:lightgray;stroke-width:2;fill:white" />
<rect id="item58" x="280" y="120" width="40" height="40" style="stroke:lightgray;stroke-width:2;fill:white" />
<rect id="item59" x="320" y="120" width="40" height="40" style="stroke:lightgray;stroke-width:2;fill:white" />
<rect id="item60" x="360" y="120" width="40" height="40" style="stroke:lightgray;stroke-width:2;fill:black" />
<rect id="item61" x="400" y="120" width="40" height="40" style="stroke:lightgray;stroke-width:2;fill:black" />
<rect id="item62" x="440" y="120" width="40" height="40" style="stroke:lightgray;stroke-width:2;fill:blue" />
<rect id="item63" x="480" y="120" width="40" height="40" style="stroke:lightgray;stroke-width:2;fill:black" />
<rect id="item64" x="520" y="120" width="40" height="40" style="stroke:lightgray;stroke-width:2;fill:black" />
<rect id="item65" x="560" y="120" width="40" height="40" style="stroke:lightgray;stroke-width:2;fill:black" />
<rect id="item66" x="600" y="120" width="40" height="40" style="stroke:lightgray;stroke-width:2;fill:black" />
<rect id="item67" x="640" y="120" width="40" height="40" style="stroke:lightgray;stroke-width:2;fill:white" />
<rect id="item68" x="0" y="160" width="40" height="40" style="stroke:lightgray;stroke-width:2;fill:white" />
<rect id="item69" x="40" y="160" width="40" height="40" style="stroke:lightgray;stroke-width:2;fill:white" />
<rect id="item70" x="80" y="160" width="40" height="40" style="stroke:lightgray;stroke-width:2;fill:white" />
<rect id="item71" x="120" y="160" width="40" height="40" style="stroke:lightgray;stroke-width:2;fill:blue" />
<rect id="item72" x="160" y="160" width="40" height="40" style="stroke:lightgray;stroke-width:2;fill:white" />
<rect id="item73" x="200" y="160" width="40" height="40" style="stroke:lightgray;stroke-width:2;fill:white" />
<rect id="item74" x="240" y="160" width="40" height="40" style="stroke:lightgray;stroke-width:2;fill:white" />
<rect id="item75" x="280" y="160" width="40" height="40" style="stroke:lightgray;stroke-width:2;fill:white" />
<rect id="item76" x="320" y="160" width="40" height="40" style="stroke:lightgray;stroke-width:2;fill:white" />
<rect id="item77" x="360" y="160" width="40" height="40" style="stroke:lightgray;stroke-width:2;fill:black" />
<rect id="item78" x="400" y="160" width="40" height="40" style="stroke:lightgray;stroke-width:2;fill:white" />
<rect id="item79" x="440" y="160" width="40" height="40" style="stroke:lightgray;stroke-width:2;fill:blue" />
<rect id="item80" x="480" y="160" width="40" height="40" style="stroke:lightgray;stroke-width:2;fill:white" />
<rect id="item81" x="520" y="160" width="40" height="40" style="stroke:lightgray;stroke-width:2;fill:white" />
<rect id="item82" x="560" y="160" width="40" height="40" style="stroke:lightgray;stroke-width:2;fill:white" />
<rect id="item83" x="600" y="160" width="40" height="40" style="stroke:lightgray;stroke-width:2;fill:black" />
<rect id="item84" x="640" y="160" width="40" height="40" style="stroke:lightgray;stroke-width:2;fill:white" />
<rect id="item85" x="0" y="200" width="40" height="40" style="stroke:lightgray;stroke-width:2;fill:white" />
<rect id="item86" x="40" y="200" width="40" height="40" style="stroke:lightgray;stroke-width:2;fill:black" />
<rect id="item87" x="80" y="200" width="40" height="40" style="stroke:lightgray;stroke-width:2;fill:black" />
<rect id="item88" x="120" y="200" width="40" height="40" style="stroke:lightgray;stroke-width:2;fill:black" />
<rect id="item89" x="160" y="200" width="40" height="40" style="stroke:lightgray;stroke-width:2;fill:black" />
<rect id="item90" x="200" y="200" width="40" height="40" style="stroke:lightgray;stroke-width:2;fill:black" />
<rect id="item91" x="240" y="200" width="40" height="40" style="stroke:lightgray;stroke-width:2;fill:black" />
<rect id="item92" x="280" y="200" width="40" height="40" style="stroke:lightgray;stroke-width:2;fill:black" />
<rect id="item93" x="320" y="200" width="40" height="40" style="stroke:lightgray;stroke-width:2;fill:white" />
<rect id="item94" x="360" y="200" width="40" height="40" style="stroke:lightgray;stroke-width:2;fill:black" />
<rect id="item95" x="400" y="200" width="40" height="40" style="stroke:lightgray;stroke-width:2;fill:black" />
<rect id="item96" x="440" y="200" width="40" height="40" style="stroke:lightgray;stroke-width:2;fill:blue" />
<rect id="item97" x="480" y="200" width="40" height="40" style="stroke:lightgray;stroke-width:2;fill:black" />
<rect id="item98" x="520" y="200" width="40" height="40" style="stroke:lightgray;stroke-width:2;fill:black" />
<rect id="item99" x="560" y="200" width="40" height="40" style="stroke:lightgray;stroke-width:2;fill:black" />
<rect id="item100" x="600" y="200" width="40" height="40" style="stroke:lightgray;stroke-width:2;fill:black" />
<rect id="item101" x="640" y="200" width="40" height="40" style="stroke:lightgray;stroke-width:2;fill:white" />
<rect id="item102" x="0" y="240" width="40" height="40" style="stroke:lightgray;stroke-width:2;fill:white" />
<rect id="item103" x="40" y="240" width="40" height="40" style="stroke:lightgray;stroke-width:2;fill:black" />
<rect id="item104" x="80" y="240" width="40" height="40" style="stroke:lightgray;stroke-width:2;fill:white" />
<rect id="item105" x="120" y="240" width="40" height="40" style="stroke:lightgray;stroke-width:2;fill:blue" />
<rect id="item106" x="160" y="240" width="40" height="40" style="stroke:lightgray;stroke-width:2;fill:white" />
<rect id="item107" x="200" y="240" width="40" height="40" style="stroke:lightgray;stroke-width:2;fill:white" />
<rect id="item108" x="240" y="240" width="40" height="40" style="stroke:lightgray;stroke-width:2;fill:white" />
<rect id="item109" x="280" y="240" width="40" height="40" style="stroke:lightgray;stroke-width:2;fill:black" />
<rect id="item110" x="320" y="240" width="40" height="40" style="stroke:lightgray;stroke-width:2;fill:white" />
<rect id="item111" x="360" y="240" width="40" height="40" style="stroke:lightgray;stroke-width:2;fill:white" />
<rect id="item112" x="400" y="240" width="40" height="40" style="stroke:lightgray;stroke-width:2;fill:white" />
<rect id="item113" x="440" y="240" width="40" height="40" style="stroke:lightgray;stroke-width:2;fill:blue" />
<rect id="item114" x="480" y="240" width="40" height="40" style="stroke:lightgray;stroke-width:2;fill:white" />
<rect id="item115" x="520" y="240" width="40" height="40" style="stroke:lightgray;stroke-width:2;fill:white" />
<rect id="item116" x="560" y="240" width="40" height="40" style="stroke:lightgray;stroke-width:2;fill:white" />
<rect id="item117" x="600" y="240" width="40" height="40" style="stroke:lightgray;stroke-width:2;fill:white" />
<rect id="item118" x="640" y="240" width="40" height="40" style="stroke:lightgray;stroke-width:2;fill:white" />
<rect id="item119" x="0" y="280" width="40" height="40" style="stroke:lightgray;stroke-width:2;fill:white" />
<rect id="item120" x="40" y="280" width="40" height="40" style="stroke:lightgray;stroke-width:2;fill:black" />
<rect id="item121" x="80" y="280" width="40" height="40" style="stroke:lightgray;stroke-width:2;fill:white" />
<rect id="item122" x="120" y="280" width="40" height="40" style="stroke:lightgray;stroke-width:2;fill:blue" />
<rect id="item123" x="160" y="280" width="40" height="40" style="stroke:lightgray;stroke-width:2;fill:white" />
<rect id="item124" x="200" y="280" width="40" height="40" style="stroke:lightgray;stroke-width:2;fill:white" />
<rect id="item125" x="240" y="280" width="40" height="40" style="stroke:lightgray;stroke-width:2;fill:white" />
<rect id="item126" x="280" y="280" width="40" height="40" style="stroke:lightgray;stroke-width:2;fill:black" />
<rect id="item127" x="320" y="280" width="40" height="40" style="stroke:lightgray;stroke-width:2;fill:white" />
<rect id="item128" x="360" y="280" width="40" height="40" style="stroke:lightgray;stroke-width:2;fill:white" />
<rect id="item129" x="400" y="280" width="40" height="40" style="stroke:lightgray;stroke-width:2;fill:white" />
<rect id="item130" x="440" y="280" width="40" height="40" style="stroke:lightgray;stroke-width:2;fill:blue" />
<rect id="item131" x="480" y="280" width="40" height="40" style="stroke:lightgray;stroke-width:2;fill:white" />
<rect id="item132" x="520" y="280" width="40" height="40" style="stroke:lightgray;stroke-width:2;fill:blue" />
<rect id="item133" x="560" y="280" width="40" height="40" style="stroke:lightgray;stroke-width:2;fill:blue" />
<rect id="item134" x="600" y="280" width="40" height="40" style="stroke:lightgray;stroke-width:2;fill:blue" />
<rect id="item135" x="640" y="280" width="40" height="40" style="stroke:lightgray;stroke-width:2;fill:blue" />
<rect id="item136" x="0" y="320" width="40" height="40" style="stroke:lightgray;stroke-width:2;fill:white" />
<rect id="item137" x="40" y="320" width="40" height="40" style="stroke:lightgray;stroke-width:2;fill:black" />
<rect id="item138" x="80" y="320" width="40" height="40" style="stroke:lightgray;stroke-width:2;fill:white" />
<rect id="item139" x="120" y="320" width="40" height="40" style="stroke:lightgray;stroke-width:2;fill:blue" />
<rect id="item140" x="160" y="320" width="40" height="40" style="stroke:lightgray;stroke-width:2;fill:blue" />
<rect id="item141" x="200" y="320" width="40" height="40" style="stroke:lightgray;stroke-width:2;fill:blue" />
<rect id="item142" x="240" y="320" width="40" height="40" style="stroke:lightgray;stroke-width:2;fill:blue" />
<rect id="item143" x="280" y="320" width="40" height="40" style="stroke:lightgray;stroke-width:2;fill:black" />
<rect id="item144" x="320" y="320" width="40" height="40" style="stroke:lightgray;stroke-width:2;fill:blue" />
<rect id="item145" x="360" y="320" width="40" height="40" style="stroke:lightgray;stroke-width:2;fill:blue" />
<rect id="item146" x="400" y="320" width="40" height="40" style="stroke:lightgray;stroke-width:2;fill:blue" />
<rect id="item147" x="440" y="320" width="40" height="40" style="stroke:lightgray;stroke-width:2;fill:blue" />
<rect id="item148" x="480" y="320" width="40" height="40" style="stroke:lightgray;stroke-width:2;fill:white" />
<rect id="item149" x="520" y="320" width="40" height="40" style="stroke:lightgray;stroke-width:2;fill:blue" />
<rect id="item150" x="560" y="320" width="40" height="40" style="stroke:lightgray;stroke-width:2;fill:white" />
<rect id="item151" x="600" y="320" width="40" height="40" style="stroke:lightgray;stroke-width:2;fill:white" />
<rect id="item152" x="640" y="320" width="40" height="40" style="stroke:lightgray;stroke-width:2;fill:blue" />
<rect id="item153" x="0" y="360" width="40" height="40" style="stroke:lightgray;stroke-width:2;fill:white" />
<rect id="item154" x="40" y="360" width="40" height="40" style="stroke:lightgray;stroke-width:2;fill:black" />
<rect id="item155" x="80" y="360" width="40" height="40" style="stroke:lightgray;stroke-width:2;fill:white" />
<rect id="item156" x="120" y="360" width="40" height="40" style="stroke:lightgray;stroke-width:2;fill:white" />
<rect id="item157" x="160" y="360" width="40" height="40" style="stroke:lightgray;stroke-width:2;fill:white" />
<rect id="item158" x="200" y="360" width="40" height="40" style="stroke:lightgray;stroke-width:2;fill:white" />
<rect id="item159" x="240" y="360" width="40" height="40" style="stroke:lightgray;stroke-width:2;fill:white" />
<rect id="item160" x="280" y="360" width="40" height="40" style="stroke:lightgray;stroke-width:2;fill:black" />
<rect id="item161" x="320" y="360" width="40" height="40" style="stroke:lightgray;stroke-width:2;fill:white" />
<rect id="item162" x="360" y="360" width="40" height="40" style="stroke:lightgray;stroke-width:2;fill:white" />
<rect id="item163" x="400" y="360" width="40" height="40" style="stroke:lightgray;stroke-width:2;fill:white" />
<rect id="item164" x="440" y="360" width="40" height="40" style="stroke:lightgray;stroke-width:2;fill:white" />
<rect id="item165" x="480" y="360" width="40" height="40" style="stroke:lightgray;stroke-width:2;fill:white" />
<rect id="item166" x="520" y="360" width="40" height="40" style="stroke:lightgray;stroke-width:2;fill:blue" />
<rect id="item167" x="560" y="360" width="40" height="40" style="stroke:lightgray;stroke-width:2;fill:blue" />
<rect id="item168" x="600" y="360" width="40" height="40" style="stroke:lightgray;stroke-width:2;fill:blue" />
<rect id="item169" x="640" y="360" width="40" height="40" style="stroke:lightgray;stroke-width:2;fill:blue" />
<rect id="item170" x="0" y="400" width="40" height="40" style="stroke:lightgray;stroke-width:2;fill:white" />
<rect id="item171" x="40" y="400" width="40" height="40" style="stroke:lightgray;stroke-width:2;fill:black" />
<rect id="item172" x="80" y="400" width="40" height="40" style="stroke:lightgray;stroke-width:2;fill:black" />
<rect id="item173" x="120" y="400" width="40" height="40" style="stroke:lightgray;stroke-width:2;fill:black" />
<rect id="item174" x="160" y="400" width="40" height="40" style="stroke:lightgray;stroke-width:2;fill:black" />
<rect id="item175" x="200" y="400" width="40" height="40" style="stroke:lightgray;stroke-width:2;fill:black" />
<rect id="item176" x="240" y="400" width="40" height="40" style="stroke:lightgray;stroke-width:2;fill:black" />
<rect id="item177" x="280" y="400" width="40" height="40" style="stroke:lightgray;stroke-width:2;fill:black" />
<rect id="item178" x="320" y="400" width="40" height="40" style="stroke:lightgray;stroke-width:2;fill:white" />
<rect id="item179" x="360" y="400" width="40" height="40" style="stroke:lightgray;stroke-width:2;fill:white" />
<rect id="item180" x="400" y="400" width="40" height="40" style="stroke:lightgray;stroke-width:2;fill:white" />
<rect id="item181" x="440" y="400" width="40" height="40" style="stroke:lightgray;stroke-width:2;fill:white" />
<rect id="item182" x="480" y="400" width="40" height="40" style="stroke:lightgray;stroke-width:2;fill:white" />
<rect id="item183" x="520" y="400" width="40" height="40" style="stroke:lightgray;stroke-width:2;fill:white" />
<rect id="item184" x="560" y="400" width="40" height="40" style="stroke:lightgray;stroke-width:2;fill:white" />
<rect id="item185" x="600" y="400" width="40" height="40" style="stroke:lightgray;stroke-width:2;fill:white" />
<rect id="item186" x="640" y="400" width="40" height="40" style="stroke:lightgray;stroke-width:2;fill:white" />
<rect id="item187" x="40" y="80" width="40" height="40" style="stroke:lightgrey;stroke-width:2;fill:red" />
<rect id="item188" x="80" y="80" width="40" height="40" style="stroke:lightgrey;stroke-width:2;fill:red" />
<rect id="item189" x="0" y="80" width="40" height="40" style="stroke:lightgrey;stroke-width:2;fill:red" />
<rect id="item190" x="40" y="120" width="40" height="40" style="stroke:lightgrey;stroke-width:2;fill:red" />
<rect id="item191" x="40" y="40" width="40" height="40" style="stroke:lightgrey;stroke-width:2;fill:red" />
<rect id="item192" x="80" y="120" width="40" height="40" style="stroke:lightgrey;stroke-width:2;fill:red" />
<rect id="item193" x="80" y="40" width="40" height="40" style="stroke:lightgrey;stroke-width:2;fill:red" />
<rect id="item194" x="0" y="120" width="40" height="40" style="stroke:lightgrey;stroke-width:2;fill:red" />
<rect id="item195" x="0" y="40" width="40" height="40" style="stroke:lightgrey;stroke-width:2;fill:red" />
<rect id="item196" x="40" y="160" width="40" height="40" style="stroke:lightgrey;stroke-width:2;fill:red" />
<rect id="item197" x="40" y="0" width="40" height="40" style="stroke:lightgrey;stroke-width:2;fill:red" />
<rect id="item198" x="80" y="160" width="40" height="40" style="stroke:lightgrey;stroke-width:2;fill:red" />
<rect id="item199" x="80" y="0" width="40" height="40" style="stroke:lightgrey;stroke-width:2;fill:red" />
<rect id="item200" x="0" y="160" width="40" height="40" style="stroke:lightgrey;stroke-width:2;fill:red" />
<rect id="item201" x="0" y="0" width="40" height="40" style="stroke:lightgrey;stroke-width:2;fill:red" />
<rect id="item202" x="120" y="0" width="40" height="40" style="stroke:lightgrey;stroke-width:2;fill:red" />
<rect id="item203" x="0" y="200" width="40" height="40" style="stroke:lightgrey;stroke-width:2;fill:red" />
<rect id="item204" x="160" y="0" width="40" height="40" style="stroke:lightgrey;stroke-width:2;fill:red" />
<rect id="item205" x="0" y="240" width="40" height="40" style="stroke:lightgrey;stroke-width:2;fill:red" />
<rect id="item206" x="200" y="0" width="40" height="40" style="stroke:lightgrey;stroke-width:2;fill:red" />
<rect id="item207" x="0" y="280" width="40" height="40" style="stroke:lightgrey;stroke-width:2;fill:red" />
<rect id="item208" x="240" y="0" width="40" height="40" style="stroke:lightgrey;stroke-width:2;fill:red" />
<rect id="item209" x="0" y="320" width="40" height="40" style="stroke:lightgrey;stroke-width:2;fill:red" />
<rect id="item210" x="280" y="0" width="40" height="40" style="stroke:lightgrey;stroke-width:2;fill:red" />
<rect id="item211" x="0" y="360" width="40" height="40" style="stroke:lightgrey;stroke-width:2;fill:red" />
<rect id="item212" x="320" y="0" width="40" height="40" style="stroke:lightgrey;stroke-width:2;fill:red" />
<rect id="item213" x="0" y="400" width="40" height="40" style="stroke:lightgrey;stroke-width:2;fill:red" />
<rect id="item214" x="360" y="0" width="40" height="40" style="stroke:lightgrey;stroke-width:2;fill:red" />
<rect id="item215" x="400" y="0" width="40" height="40" style="stroke:lightgrey;stroke-width:2;fill:red" />
<rect id="item216" x="440" y="0" width="40" height="40" style="stroke:lightgrey;stroke-width:2;fill:red" />
<rect id="item217" x="480" y="0" width="40" height="40" style="stroke:lightgrey;stroke-width:2;fill:red" />
<rect id="item218" x="520" y="0" width="40" height="40" style="stroke:lightgrey;stroke-width:2;fill:red" />
<rect id="item219" x="480" y="40" width="40" height="40" style="stroke:lightgrey;stroke-width:2;fill:red" />
<rect id="item220" x="560" y="0" width="40" height="40" style="stroke:lightgrey;stroke-width:2;fill:red" />
<rect id="item221" x="520" y="40" width="40" height="40" style="stroke:lightgrey;stroke-width:2;fill:red" />
<rect id="item222" x="480" y="80" width="40" height="40" style="stroke:lightgrey;stroke-width:2;fill:red" />
<rect id="item223" x="600" y="0" width="40" height="40" style="stroke:lightgrey;stroke-width:2;fill:red" />
<rect id="item224" x="560" y="40" width="40" height="40" style="stroke:lightgrey;stroke-width:2;fill:red" />
<rect id="item225" x="520" y="80" width="40" height="40" style="stroke:lightgrey;stroke-width:2;fill:red" />
<rect id="item226" x="640" y="0" width="40" height="40" style="stroke:lightgrey;stroke-width:2;fill:red" />
<rect id="item227" x="600" y="40" width="40" height="40" style="stroke:lightgrey;stroke-width:2;fill:red" />
<rect id="item228" x="560" y="80" width="40" height="40" style="stroke:lightgrey;stroke-width:2;fill:red" />
<rect id="item229" x="640" y="40" width="40" height="40" style="stroke:lightgrey;stroke-width:2;fill:red" />
<rect id="item230" x="600" y="80" width="40" height="40" style="stroke:lightgrey;stroke-width:2;fill:red" />
<rect id="item231" x="640" y="80" width="40" height="40" style="stroke:lightgrey;stroke-width:2;fill:red" />
<rect id="item232" x="640" y="120" width="40" height="40" style="stroke:lightgrey;stroke-width:2;fill:red" />
<rect id="item233" x="640" y="160" width="40" height="40" style="stroke:lightgrey;stroke-width:2;fill:red" />
<rect id="item234" x="640" y="200" width="40" height="40" style="stroke:lightgrey;stroke-width:2;fill:red" />
<rect id="item235" x="640" y="240" width="40" height="40" style="stroke:lightgrey;stroke-width:2;fill:red" />
<rect id="item236" x="600" y="240" width="40" height="40" style="stroke:lightgrey;stroke-width:2;fill:red" />
<rect id="item237" x="560" y="240" width="40" height="40" style="stroke:lightgrey;stroke-width:2;fill:red" />
<rect id="item238" x="520" y="240" width="40" height="40" style="stroke:lightgrey;stroke-width:2;fill:red" />
<rect id="item239" x="480" y="240" width="40" height="40" style="stroke:lightgrey;stroke-width:2;fill:red" />
<rect id="item240" x="480" y="280" width="40" height="40" style="stroke:lightgrey;stroke-width:2;fill:red" />
<rect id="item241" x="480" y="320" width="40" height="40" style="stroke:lightgrey;stroke-width:2;fill:red" />
<rect id="item242" x="480" y="360" width="40" height="40" style="stroke:lightgrey;stroke-width:2;fill:red" />
<rect id="item243" x="440" y="360" width="40" height="40" style="stroke:lightgrey;stroke-width:2;fill:red" />
<rect id="item244" x="480" y="400" width="40" height="40" style="stroke:lightgrey;stroke-width:2;fill:red" />
<rect id="item245" x="400" y="360" width="40" height="40" style="stroke:lightgrey;stroke-width:2;fill:red" />
<rect id="item246" x="440" y="400" width="40" height="40" style="stroke:lightgrey;stroke-width:2;fill:red" />
<rect id="item247" x="520" y="400" width="40" height="40" style="stroke:lightgrey;stroke-width:2;fill:red" />
<rect id="item248" x="360" y="360" width="40" height="40" style="stroke:lightgrey;stroke-width:2;fill:red" />
<rect id="item249" x="400" y="400" width="40" height="40" style="stroke:lightgrey;stroke-width:2;fill:red" />
<rect id="item250" x="560" y="400" width="40" height="40" style="stroke:lightgrey;stroke-width:2;fill:red" />
<rect id="item251" x="320" y="360" width="40" height="40" style="stroke:lightgrey;stroke-width:2;fill:red" />
<rect id="item252" x="360" y="400" width="40" height="40" style="stroke:lightgrey;stroke-width:2;fill:red" />
<rect id="item253" x="600" y="400" width="40" height="40" style="stroke:lightgrey;stroke-width:2;fill:red" />
<rect id="item254" x="320" y="400" width="40" height="40" style="stroke:lightgrey;stroke-width:2;fill:red" />
<rect id="item255" x="640" y="400" width="40" height="40" style="stroke:lightgrey;stroke-width:2;fill:red" />
<set xlink:href="#item188" attributeName="visibility" to="hidden" begin="0s" dur="0.3s" />
<set xlink:href="#item189" attributeName="visibility" to="hidden" begin="0s" dur="0.6s" />
<set xlink:href="#item190" attributeName="visibility" to="hidden" begin="0s" dur="0.9s" />
<set xlink:href="#item191" attributeName="visibility" to="hidden" begin="0s" dur="1.2s" />
<set xlink:href="#item192" attributeName="visibility" to="hidden" begin="0s" dur="1.5s" />
<set xlink:href="#item193" attributeName="visibility" to="hidden" begin="0s" dur="1.8s" />
<set xlink:href="#item194" attributeName="visibility" to="hidden" begin="0s" dur="2.1s" />
<set xlink:href="#item195" attributeName="visibility" to="hidden" begin="0s" dur="2.4s" />
<set xlink:href="#item196" attributeName="visibility" to="hidden" begin="0s" dur="2.7s" />
<set xlink:href="#item197" attributeName="visibility" to="hidden" begin="0s" dur="3s" />
<set xlink:href="#item198" attributeName="visibility" to="hidden" begin="0s" dur="3.3s" />
<set xlink:href="#item199" attributeName="visibility" to="hidden" begin="0s" dur="3.6s" />
<set xlink:href="#item200" attributeName="visibility" to="hidden" begin="0s" dur="3.9s" />
<set xlink:href="#item201" attributeName="visibility" to="hidden" begin="0s" dur="4.2s" />
<set xlink:href="#item202" attributeName="visibility" to="hidden" begin="0s" dur="4.5s" />
<set xlink:href="#item203" attributeName="visibility" to="hidden" begin="0s" dur="4.8s" />
<set xlink:href="#item204" attributeName="visibility" to="hidden" begin="0s" dur="5.1s" />
<set xlink:href="#item205" attributeName="visibility" to="hidden" begin="0s" dur="5.4s" />
<set xlink:href="#item206" attributeName="visibility" to="hidden" begin="0s" dur="5.7s" />
<set xlink:href="#item207" attributeName="visibility" to="hidden" begin="0s" dur="6s" />
<set xlink:href="#item208" attributeName="visibility" to="hidden" begin="0s" dur="6.3s" />
<set xlink:href="#item209" attributeName="visibility" to="hidden" begin="0s" dur="6.6s" />
<set xlink:href="#item210" attributeName="visibility" to="hidden" begin="0s" dur="6.9s" />
<set xlink:href="#item211" attributeName="visibility" to="hidden" begin="0s" dur="7.2s" />
<set xlink:href="#item212" attributeName="visibility" to="hidden" begin="0s" dur="7.5s" />
<set xlink:href="#item213" attributeName="visibility" to="hidden" begin="0s" dur="7.8s" />
<set xlink:href="#item214" attributeName="visibility" to="hidden" begin="0s" dur="8.1s" />
<set xlink:href="#item215" attributeName="visibility" to="hidden" begin="0s" dur="8.4s" />
<set xlink:href="#item216" attributeName="visibility" to="hidden" begin="0s" dur="8.7s" />
<set xlink:href="#item217" attributeName="visibility" to="hidden" begin="0s" dur="9s" />
<set xlink:href="#item218" attributeName="visibility" to="hidden" begin="0s" dur="9.3s" />
<set xlink:href="#item219" attributeName="visibility" to="hidden" begin="0s" dur="9.6s" />
<set xlink:href="#item220" attributeName="visibility" to="hidden" begin="0s" dur="9.9s" />
<set xlink:href="#item221" attributeName="visibility" to="hidden" begin="0s" dur="10.2s" />
<set xlink:href="#item222" attributeName="visibility" to="hidden" begin="0s" dur="10.5s" />
<set xlink:href="#item223" attributeName="visibility" to="hidden" begin="0s" dur="10.8s" />
<set xlink:href="#item224" attributeName="visibility" to="hidden" begin="0s" dur="11.1s" />
<set xlink:href="#item225" attributeName="visibility" to="hidden" begin="0s" dur="11.4s" />
<set xlink:href="#item226" attributeName="visibility" to="hidden" begin="0s" dur="11.7s" />
<set xlink:href="#item227" attributeName="visibility" to="hidden" begin="0s" dur="12s" />
<set xlink:href="#item228" attributeName="visibility" to="hidden" begin="0s" dur="12.3s" />
<set xlink:href="#item229" attributeName="visibility" to="hidden" begin="0s" dur="12.6s" />
<set xlink:href="#item230" attributeName="visibility" to="hidden" begin="0s" dur="12.9s" />
<set xlink:href="#item231" attributeName="visibility" to="hidden" begin="0s" dur="13.2s" />
<set xlink:href="#item232" attributeName="visibility" to="hidden" begin="0s" dur="13.5s" />
<set xlink:href="#item233" attributeName="visibility" to="hidden" begin="0s" dur="13.8s" />
<set xlink:href="#item234" attributeName="visibility" to="hidden" begin="0s" dur="14.1s" />
<set xlink:href="#item235" attributeName="visibility" to="hidden" begin="0s" dur="14.4s" />
<set xlink:href="#item236" attributeName="visibility" to="hidden" begin="0s" dur="14.7s" />
<set xlink:href="#item237" attributeName="visibility" to="hidden" begin="0s" dur="15s" />
<set xlink:href="#item238" attributeName="visibility" to="hidden" begin="0s" dur="15.3s" />
<set xlink:href="#item239" attributeName="visibility" to="hidden" begin="0s" dur="15.6s" />
<set xlink:href="#item240" attributeName="visibility" to="hidden" begin="0s" dur="15.9s" />
<set xlink:href="#item241" attributeName="visibility" to="hidden" begin="0s" dur="16.2s" />
<set xlink:href="#item242" attributeName="visibility" to="hidden" begin="0s" dur="16.5s" />
<set xlink:href="#item243" attributeName="visibility" to="hidden" begin="0s" dur="16.8s" />
<set xlink:href="#item244" attributeName="visibility" to="hidden" begin="0s" dur="17.1s" />
<set xlink:href="#item245" attributeName="visibility" to="hidden" begin="0s" dur="17.4s" />
<set xlink:href="#item246" attributeName="visibility" to="hidden" begin="0s" dur="17.7s" />
<set xlink:href="#item247" attributeName="visibility" to="hidden" begin="0s" dur="18s" />
<set xlink:href="#item248" attributeName="visibility" to="hidden" begin="0s" dur="18.3s" />
<set xlink:href="#item249" attributeName="visibility" to="hidden" begin="0s" dur="18.6s" />
<set xlink:href="#item250" attributeName="visibility" to="hidden" begin="0s" dur="18.9s" />
<set xlink:href="#item251" attributeName="visibility" to="hidden" begin="0s" dur="19.2s" />
<set xlink:href="#item252" attributeName="visibility" to="hidden" begin="0s" dur="19.5s" />
<set xlink:href="#item253" attributeName="visibility" to="hidden" begin="0s" dur="19.8s" />
<set xlink:href="#item254" attributeName="visibility" to="hidden" begin="0s" dur="20.1s" />
<set xlink:href="#item255" attributeName="visibility" to="hidden" begin="0s" dur="20.4s" />
</svg>
